<mxfile host="app.diagrams.net" modified="2022-04-04T04:23:49.432Z" agent="5.0 (Macintosh; Intel Mac OS X 10_15_7) AppleWebKit/537.36 (KHTML, like Gecko) Chrome/100.0.4896.60 Safari/537.36" etag="cqB9mQrardHmsVPWQ_yh" version="17.4.0" type="github">
  <diagram id="81o7t5BjB0EVdO9nxBHt" name="Page-1">
    <mxGraphModel dx="1018" dy="605" grid="1" gridSize="10" guides="1" tooltips="1" connect="1" arrows="1" fold="1" page="1" pageScale="1" pageWidth="827" pageHeight="1169" math="0" shadow="0">
      <root>
        <mxCell id="0" />
        <mxCell id="1" parent="0" />
        <mxCell id="f7cmbQZEeLNbfhsAGj48-4" value="" style="edgeStyle=orthogonalEdgeStyle;rounded=0;orthogonalLoop=1;jettySize=auto;html=1;" edge="1" parent="1" source="f7cmbQZEeLNbfhsAGj48-1" target="f7cmbQZEeLNbfhsAGj48-3">
          <mxGeometry relative="1" as="geometry" />
        </mxCell>
        <mxCell id="f7cmbQZEeLNbfhsAGj48-1" value="My first draw" style="rounded=0;whiteSpace=wrap;html=1;" vertex="1" parent="1">
          <mxGeometry x="330" y="100" width="84" height="60" as="geometry" />
        </mxCell>
        <mxCell id="f7cmbQZEeLNbfhsAGj48-3" value="Select" style="rhombus;whiteSpace=wrap;html=1;rounded=0;" vertex="1" parent="1">
          <mxGeometry x="168" y="90" width="80" height="80" as="geometry" />
        </mxCell>
      </root>
    </mxGraphModel>
  </diagram>
</mxfile>
